<svg xmlns="http://www.w3.org/2000/svg" viewBox="0 0 666 430"><path d="M428.86,191.83a8.388,8.388,0,0,0-3.421-6.138c-20-11.77-40.169-23.239-60.479-34.9l-63.821,36.72V107.935a7.211,7.211,0,0,1,2.848-4.923L326.034,90.37q14.516-8.285,29-16.623,17.37-9.955,34.824-19.976L417.892,37.7l-.011-.006.01-.006-15.209-8.865L353.984.4l-.032.019h0l-116.9,67.622v7.047q0,149.172,0,298.345c0,5.095-.2,10.2.119,15.278.1,1.7,1.069,4.079,2.4,4.87,20.448,12.149,41.023,24.086,61.484,36.024l.014-.008.007,0,25.5-14.748q11.559-6.683,23.062-13.344,38.255-22.138,76.339-44.335c1.592-.929,2.893-3.811,2.9-5.788Q429.117,271.607,428.86,191.83ZM359.9,221.679c3.877,2.2,5.219,4.614,5.2,9.063-.168,51.146-.107,102.293-.107,153.44v7.19l-60.758-33.945a7.074,7.074,0,0,1-3.1-4.976V187.532C321.524,199.424,340.617,210.717,359.9,221.679Z" fill="#fff"/><path d="M665.86,191.83a8.388,8.388,0,0,0-3.421-6.138c-20-11.77-40.169-23.239-60.479-34.9l-63.821,36.72V107.935a7.211,7.211,0,0,1,2.848-4.923L563.034,90.37q14.516-8.285,29-16.623,17.37-9.955,34.824-19.976L654.892,37.7l-.011-.006.01-.006-15.209-8.865L590.984.4l-.032.019h0L474.057,68.038v7.047q0,149.172,0,298.345c0,5.095-.2,10.2.119,15.278.105,1.7,1.069,4.079,2.4,4.87,20.448,12.149,41.023,24.086,61.484,36.024l.014-.008.007,0,25.5-14.748q11.559-6.683,23.062-13.344,38.255-22.138,76.339-44.335c1.592-.929,2.893-3.811,2.9-5.788Q666.117,271.607,665.86,191.83ZM596.9,221.679c3.877,2.2,5.219,4.614,5.205,9.063-.168,51.146-.107,102.293-.107,153.44v7.19l-60.758-33.945a7.074,7.074,0,0,1-3.1-4.976V187.532C558.524,199.424,577.617,210.717,596.9,221.679Z" fill="#fff"/><path d="M191.865,191.83a8.385,8.385,0,0,0-3.421-6.138c-20-11.77-40.169-23.239-60.478-34.9-21,12.083-42,24.165-63.821,36.72V107.935a7.206,7.206,0,0,1,2.847-4.923L89.039,90.37q14.515-8.285,29-16.623,17.37-9.955,34.825-19.976L180.9,37.7l-.012-.006.01-.006-15.209-8.865L116.989.4l-.032.019h0L.062,68.038v7.047q0,149.172,0,298.345c0,5.095-.2,10.2.118,15.278.106,1.7,1.069,4.079,2.4,4.87C23.028,405.727,43.6,417.664,64.064,429.6l.014-.008.008,0q12.766-7.385,25.5-14.748,11.558-6.683,23.061-13.344,38.256-22.138,76.339-44.335c1.592-.929,2.893-3.811,2.9-5.788Q192.122,271.607,191.865,191.83ZM122.9,221.679c3.878,2.2,5.22,4.614,5.205,9.063-.168,51.146-.107,102.293-.107,153.44v7.19L67.245,357.427a7.074,7.074,0,0,1-3.1-4.976V187.532C84.529,199.424,103.622,210.717,122.9,221.679Z" fill="#fff"/></svg>