<svg xmlns="http://www.w3.org/2000/svg" viewBox="0 0 16 16">
  <style>
    path {
      fill: #000;
    }
    @media (prefers-color-scheme: dark) {
      path {
        fill: #fff;
      }
    }
  </style>
  <path d="M11.546,4.865,7.151,5.79,9.6.083A.06.06,0,0,0,9.588.021.06.06,0,0,0,9.528,0L6.681.713a.058.058,0,0,0-.043.041L4.384,8.346A.058.058,0,0,0,4.4,8.4a.06.06,0,0,0,.058.017L9.108,7.258,8.055,12.236,7.349,11.5a.062.062,0,0,0-.068-.013.058.058,0,0,0-.035.058l.286,4.4A.059.059,0,0,0,7.574,16l.018,0a.061.061,0,0,0,.046-.022l2.818-3.39a.06.06,0,0,0-.057-.1l-1.232.221,2.449-7.771a.062.062,0,0,0-.013-.058A.06.06,0,0,0,11.546,4.865Z"/>
</svg>