<svg xmlns="http://www.w3.org/2000/svg" viewBox="0 0 666 666"><path d="M545.092,30H120.908L274.464,325.324,181.22,429.982l4.479,3.992,91.727-102.955L329.619,431.4l-42.872,82.452-20.054-48.267-5.541,2.3L283.135,520.8l-41.05,78.949,5.323,2.767,38.731-74.487L333,640.819l46.861-112.792,38.731,74.487,5.323-2.767L382.865,520.8l21.983-52.912-5.541-2.3-20.054,48.267L336.381,431.4l52.193-100.38L480.3,433.974l4.479-3.992L391.536,325.324ZM333,259.622,133.767,36H532.233ZM528.117,49.64,387.266,320.531l-50.248-56.4ZM328.982,264.132l-50.248,56.4L137.883,49.64Zm4.018,4.51,51.3,57.584L333,424.9l-51.3-98.67ZM289.75,521.08,333,437.9l43.25,83.178L333,625.18Z" fill="#000000"/></svg>