<svg xmlns="http://www.w3.org/2000/svg" viewBox="0 0 666 666"><path d="M333,0C149.089,0,0,149.089,0,333S149.089,666,333,666,666,516.911,666,333,516.911,0,333,0Zm0,602.034C184.654,602.034,63.966,481.346,63.966,333S184.654,63.966,333,63.966,602.034,184.654,602.034,333,481.346,602.034,333,602.034Z" fill="#72ff27"/><path d="M430.443,232.245,292.007,261.391l77.035-179.75a1.882,1.882,0,0,0-2.185-2.569l-89.671,22.393a1.886,1.886,0,0,0-1.349,1.289L204.847,341.9a1.883,1.883,0,0,0,2.26,2.363L353.64,307.631l-33.166,156.8-22.253-23.183a1.882,1.882,0,0,0-3.236,1.426l9.029,138.562a1.881,1.881,0,0,0,3.325,1.081L396.09,475.52a1.881,1.881,0,0,0-1.781-3.053L355.5,479.43l77.123-244.779a1.888,1.888,0,0,0-.4-1.83A1.918,1.918,0,0,0,430.443,232.245Z" fill="#72ff27"/></svg>